<svg xmlns="http://www.w3.org/2000/svg" width="22.045" height="22.357" viewBox="0 0 22.045 22.357">
  <g id="그룹_18458" data-name="그룹 18458" transform="translate(-347.648 -4565.492)">
    <g id="그룹_18443" data-name="그룹 18443" transform="translate(339 4557)">
      <path id="패스_7672" data-name="패스 7672" d="M589.026-148.67l-5.416-5.448a9.326,9.326,0,0,0,1.952-5.709,9.329,9.329,0,0,0-9.29-9.345,9.329,9.329,0,0,0-9.29,9.345,9.328,9.328,0,0,0,9.29,9.345,9.194,9.194,0,0,0,5.469-1.807l5.443,5.474Zm-19.437-11.157a6.71,6.71,0,0,1,6.683-6.722,6.71,6.71,0,0,1,6.683,6.722,6.71,6.71,0,0,1-6.683,6.722A6.71,6.71,0,0,1,569.589-159.827Z" transform="translate(-558.333 177.664)" fill="#191919"/>
    </g>
  </g>
</svg>
