<svg xmlns="http://www.w3.org/2000/svg" width="26.858" height="31.473" viewBox="0 0 26.858 31.473">
  <g id="logo" transform="translate(0.016)">
    <g id="그룹_18597" data-name="그룹 18597" transform="translate(0 3.106)">
      <path id="패스_7743" data-name="패스 7743" d="M28.441,43.685c-3.984,0-6.061-2.614-7.555-3.9A28.215,28.215,0,0,0,17.565,37.5a1.762,1.762,0,0,1-.582-2.489,2.352,2.352,0,0,1-.455-1.7c0-1.286,2.78-2.822,2.78-2.822-1.2-1.246-1.162-6.476-1.162-6.476l.082-7.107s2.743-.1,4.752-.369a30.693,30.693,0,0,0,5.3-1.2,31.288,31.288,0,0,0,5.219,1.2c2.007.278,5.094.369,5.094.369l.083,7.107s.042,5.231-1.162,6.476c0,0,2.782,1.536,2.782,2.822a2.342,2.342,0,0,1-.458,1.7,1.761,1.761,0,0,1-.58,2.489,28.05,28.05,0,0,0-3.321,2.285c-1.5,1.288-3.568,3.9-7.554,3.9" transform="translate(-16.528 -15.334)" fill="#001d66" stroke="#1a1311" stroke-width="0.031"/>
      <g id="그룹_18544" data-name="그룹 18544" transform="translate(0.782 16.209)">
        <path id="SVGID" d="M19.542,33.767c-.352.251-1.46,1.107-1.46,1.107a2.412,2.412,0,0,1-.769-1.292c-.033-.42,1.843-1.995,1.843-1.995s-.007.45.921,1.242c.906.771,1.559,1.24,1.742,1.374s.755.587.522.807-.42.149-.822-.086a3.567,3.567,0,0,1-.955-.889c-.2-.219-.537-.5-.8-.4s-.217.135-.217.135" transform="translate(-17.313 -31.587)" fill="#c6a200"/>
      </g>
      <g id="그룹_18545" data-name="그룹 18545" transform="translate(17.946 16.209)">
        <path id="SVGID-2" data-name="SVGID" d="M37.377,33.767c.355.251,1.459,1.107,1.459,1.107a2.417,2.417,0,0,0,.771-1.292c.032-.42-1.845-1.995-1.845-1.995s.007.45-.92,1.242c-.906.771-1.559,1.24-1.742,1.374s-.754.587-.521.807.419.149.822-.086a3.552,3.552,0,0,0,.953-.889c.2-.219.539-.5.807-.4s.216.135.216.135" transform="translate(-34.523 -31.587)" fill="#c6a200"/>
      </g>
      <path id="패스_7744" data-name="패스 7744" d="M28.473,38.16c-.65,0-2.12-1.027-4.072-2.637a14.887,14.887,0,0,1-4-5.337,12.318,12.318,0,0,1-.858-5.166V18.042l8.672-1.176,9.08,1.176V25.02a12.3,12.3,0,0,1-.856,5.166,14.889,14.889,0,0,1-4,5.337c-1.951,1.61-3.423,2.637-4.07,2.637" transform="translate(-16.536 -15.338)" fill="none" stroke="#fff" stroke-width="0.22"/>
      <path id="패스_7745" data-name="패스 7745" d="M28.488,22.422h7.579v3.047a10.561,10.561,0,0,1-.735,4.44,12.8,12.8,0,0,1-3.439,4.586c-1.675,1.382-2.939,2.265-3.5,2.265" transform="translate(-16.56 -15.353)" fill="#8d3618" stroke="#1a1311" stroke-width="0.22"/>
      <path id="패스_7746" data-name="패스 7746" d="M28.247,36.79c-.558,0-1.822-.882-3.5-2.264a12.827,12.827,0,0,1-3.439-4.587,10.556,10.556,0,0,1-.734-4.437V22.453h7.67" transform="translate(-16.539 -15.353)" fill="#00872e" stroke="#1a1311" stroke-width="0.22"/>
      <path id="패스_7747" data-name="패스 7747" d="M36,21.87V18.891l-7.708-.9-7.453.9V21.9L36,21.87Z" transform="translate(-16.54 -15.341)" fill="#ebbf00"/>
      <path id="패스_7748" data-name="패스 7748" d="M22.17,33.864s.58-.095.635-.188-.057-.173-.057-.173l.166-.09s.565-.319.741-.446a6.653,6.653,0,0,0,.51-.45l.351.223.11-.066.63.781.119.354s.173.029.235-.053a.553.553,0,0,0,.084-.2l-.307-.215-.649-.714-.128-.3s.2-.263.267-.268.169.1.169.1l.153-.111a.926.926,0,0,1,.04-.237,1.927,1.927,0,0,1,.307-.3l3.566-2.875,3.011-2.388,1.775-1.45a1.845,1.845,0,0,0,.4-.364c.07-.134.179-.333.179-.333l.058-.159-.255.06" transform="translate(-16.543 -15.358)" fill="#fff" stroke="#000" stroke-width="0.11"/>
      <path id="패스_7749" data-name="패스 7749" d="M22.17,33.877s.2-.544.3-.576.164.089.164.089l.122-.142s.43-.479.59-.622.552-.4.552-.4l-.155-.379.087-.095-.661-.758-.33-.182s0-.172.1-.214a.559.559,0,0,1,.22-.041l.156.337.586.762.28.179s.3-.132.321-.2-.063-.18-.063-.18l.138-.125a.922.922,0,0,0,.246,0,1.935,1.935,0,0,0,.36-.235l3.581-2.858,2.98-2.421,1.8-1.418a1.843,1.843,0,0,1,.441-.314c.15-.042.37-.107.37-.107" transform="translate(-16.543 -15.358)" fill="#fff" stroke="#000" stroke-width="0.11"/>
      <path id="패스_7750" data-name="패스 7750" d="M34.531,33.864s-.583-.095-.633-.188.053-.173.053-.173l-.165-.09s-.563-.319-.74-.446-.51-.45-.51-.45l-.348.223-.112-.066-.631.781-.117.354s-.174.029-.236-.053a.553.553,0,0,1-.084-.2l.308-.215.647-.714.126-.3s-.194-.263-.265-.268-.171.1-.171.1l-.151-.111a.944.944,0,0,0-.041-.237,1.974,1.974,0,0,0-.3-.3l-3.567-2.875-3.012-2.388-1.772-1.45a1.842,1.842,0,0,1-.4-.364l-.177-.333-.057-.159.254.06" transform="translate(-16.543 -15.358)" fill="#fff" stroke="#000" stroke-width="0.11"/>
      <path id="패스_7751" data-name="패스 7751" d="M34.534,33.877s-.2-.544-.3-.576-.162.089-.162.089l-.125-.142s-.429-.479-.59-.622-.549-.4-.549-.4l.151-.379-.084-.095.661-.758.328-.182s0-.172-.1-.214a.543.543,0,0,0-.217-.041l-.157.337-.586.762-.279.179s-.3-.132-.323-.2.063-.18.063-.18l-.139-.125a.913.913,0,0,1-.245,0,1.9,1.9,0,0,1-.36-.235l-3.579-2.858-2.984-2.421-1.8-1.418a1.835,1.835,0,0,0-.446-.314l-.367-.107" transform="translate(-16.544 -15.358)" fill="#fff" stroke="#000" stroke-width="0.11"/>
      <path id="패스_7752" data-name="패스 7752" d="M22.244,19.524a3.639,3.639,0,0,0,.068.821c.041.156.106.245.192.268v.238a.313.313,0,0,1-.192-.13,1.037,1.037,0,0,1-.142-.342.941.941,0,0,1-.152.342.346.346,0,0,1-.184.13v-.236c.088-.025.152-.117.194-.27a3.5,3.5,0,0,0,.07-.821h.146m.426.444v-.443h.141v1.681H22.67V20.172h-.23v-.2Z" transform="translate(-16.542 -15.345)" fill="#1a1311"/>
      <path id="패스_7753" data-name="패스 7753" d="M24.063,20.423V20.9h-.816v.09h.816V21.2h-.873a.069.069,0,0,1-.063-.032.2.2,0,0,1-.022-.113V20.71h.817v-.088h-.817v-.2h.4v-.1h-.434v-.186h.266a.478.478,0,0,1-.049-.123.584.584,0,0,1-.02-.147.572.572,0,0,1,.1-.34.27.27,0,0,1,.222-.121.265.265,0,0,1,.217.121.553.553,0,0,1,.1.34.526.526,0,0,1-.021.147.623.623,0,0,1-.053.123H24.1v.186h-.437v.1h.4m-.6-.745a.357.357,0,0,0-.049.19.336.336,0,0,0,.049.179.148.148,0,0,0,.127.08.152.152,0,0,0,.126-.08.336.336,0,0,0,.049-.179.357.357,0,0,0-.049-.19.143.143,0,0,0-.252,0Z" transform="translate(-16.546 -15.345)" fill="#1a1311"/>
      <path id="패스_7754" data-name="패스 7754" d="M25.013,19.728h-.748v-.2h.889v1.385h.082v.207H24.207v-.207h.806v-.6h-.745v-.2h.745v-.381Z" transform="translate(-16.549 -15.345)" fill="#1a1311"/>
      <path id="패스_7755" data-name="패스 7755" d="M25.933,19.727h-.445v-.2h.587v.731H25.63v.366H26.3v-1.1h.142v1.7H26.3v-.4h-.73a.072.072,0,0,1-.063-.033.245.245,0,0,1-.023-.122v-.618h.445v-.324Z" transform="translate(-16.552 -15.345)" fill="#1a1311"/>
      <path id="패스_7756" data-name="패스 7756" d="M27.293,19.516a.817.817,0,0,0,.112.459.4.4,0,0,0,.274.177v.227a.516.516,0,0,1-.261-.121.7.7,0,0,1-.2-.312.663.663,0,0,1-.2.314.531.531,0,0,1-.26.119v-.225a.4.4,0,0,0,.276-.18.818.818,0,0,0,.111-.458h.157m.438,1.391v.207H26.7v-.207Z" transform="translate(-16.556 -15.345)" fill="#1a1311"/>
      <path id="패스_7757" data-name="패스 7757" d="M28.591,19.8h-.224a.641.641,0,0,0,.054.253.25.25,0,0,0,.177.144v.22a.275.275,0,0,1-.164-.06.416.416,0,0,1-.142-.189.446.446,0,0,1-.15.191.276.276,0,0,1-.161.058v-.22a.25.25,0,0,0,.181-.144.653.653,0,0,0,.052-.253h-.226v-.2h.228v-.162h.153v.162h.222v.2h0m.354.293v.57H28.8V19.525h.143v.358h.147v.206h-.147m-.91.529h.142v.374h.776v.2h-.832a.077.077,0,0,1-.065-.036.241.241,0,0,1-.021-.114v-.429Z" transform="translate(-16.559 -15.345)" fill="#1a1311"/>
      <path id="패스_7758" data-name="패스 7758" d="M29.869,19.719c.007.047.042.083.116.1a1.152,1.152,0,0,0,.267.034v.2a1.377,1.377,0,0,1-.263-.027.334.334,0,0,1-.216-.129.332.332,0,0,1-.215.129,1.421,1.421,0,0,1-.261.027v-.2a1.1,1.1,0,0,0,.266-.032c.075-.022.113-.059.117-.109H29.3v-.2h.956v.2h-.383m.15.846a.6.6,0,0,1,.071.3.539.539,0,0,1-.1.335.264.264,0,0,1-.217.123.271.271,0,0,1-.222-.123.536.536,0,0,1-.1-.335.581.581,0,0,1,.075-.3.327.327,0,0,1,.176-.153v-.054h-.44v-.2h1.029v.2h-.445v.056a.327.327,0,0,1,.175.151h0m-.37.109a.308.308,0,0,0-.058.189.314.314,0,0,0,.058.189.132.132,0,0,0,.241,0,.3.3,0,0,0,.058-.189.29.29,0,0,0-.058-.189.134.134,0,0,0-.241,0Z" transform="translate(-16.563 -15.345)" fill="#1a1311"/>
      <path id="패스_7759" data-name="패스 7759" d="M31.451,20.909v.207H30.422v-.207h.336V20.2h.14v.708h.322V19.728h-.74v-.2h.883v1.385Z" transform="translate(-16.566 -15.345)" fill="#1a1311"/>
      <path id="패스_7760" data-name="패스 7760" d="M31.788,20.073a.062.062,0,0,1-.062-.033.26.26,0,0,1-.021-.12v-.4h.952v.2h-.81v.146h.81v.2h-.87m.911.164v.2h-.262a.47.47,0,0,1,.076.15.579.579,0,0,1,.032.193.6.6,0,0,1-.113.379.3.3,0,0,1-.244.142.3.3,0,0,1-.249-.142.629.629,0,0,1-.109-.379.692.692,0,0,1,.026-.193.539.539,0,0,1,.081-.15h-.264v-.2H32.7m-.664.316a.458.458,0,0,0,0,.46.186.186,0,0,0,.151.094.176.176,0,0,0,.147-.094.452.452,0,0,0,0-.46.175.175,0,0,0-.147-.092.185.185,0,0,0-.151.092Z" transform="translate(-16.569 -15.345)" fill="#1a1311"/>
      <path id="패스_7761" data-name="패스 7761" d="M33.914,20v.329h-.143v-.806h.143V19.8h.146V20h-.146m-.747-.154a.271.271,0,0,0-.04.147.261.261,0,0,0,.04.144.115.115,0,0,0,.1.063.1.1,0,0,0,.091-.063A.217.217,0,0,0,33.4,20a.225.225,0,0,0-.045-.147.1.1,0,0,0-.091-.06.113.113,0,0,0-.1.06h0m.326-.06a.346.346,0,0,1,.033.092.388.388,0,0,1,.011.108.509.509,0,0,1-.081.3.232.232,0,0,1-.19.113.236.236,0,0,1-.2-.113.49.49,0,0,1-.087-.3.548.548,0,0,1,.011-.108.443.443,0,0,1,.038-.092H32.95v-.2h.241v-.162h.156v.162h.227v.2h-.081m.421,1.416h-.143v-.485H33v-.207h.912v.692Z" transform="translate(-16.573 -15.345)" fill="#1a1311"/>
      <path id="패스_7762" data-name="패스 7762" d="M35.2,20.909v.207h-1.03v-.207h.166V20.2h.142v.708h.159V20.2h.143v.708h.193V19.728h-.74v-.2h.88v1.385Z" transform="translate(-16.576 -15.345)" fill="#1a1311"/>
      <path id="패스_7763" data-name="패스 7763" d="M25.433,25.639a5.94,5.94,0,0,0-1.037.412c-.066.211-.48,4.418-.53,4.593.189.066,4.55.054,4.55.054" transform="translate(-16.548 -15.362)" fill="none" stroke="#302d2c" stroke-width="0.062"/>
      <path id="패스_7764" data-name="패스 7764" d="M25.409,25.709s-.795-.014-1.077-.012c-.271.236-.609,4.868-.638,5.1.189.158,4.747.1,4.747.1" transform="translate(-16.548 -15.362)" fill="#e0e0e0" stroke="#302d2c" stroke-width="0.33"/>
      <path id="패스_7765" data-name="패스 7765" d="M31.376,25.676a5.226,5.226,0,0,1,.966.4c.064.212.416,4.421.463,4.6-.192.067-4.544.122-4.544.122" transform="translate(-16.56 -15.362)" fill="#e0e0e0" stroke="#302d2c" stroke-width="0.062"/>
      <path id="패스_7766" data-name="패스 7766" d="M31.342,25.738s.789-.018,1.068-.014c.269.237.54,4.872.564,5.107-.191.156-4.748.068-4.748.068" transform="translate(-16.56 -15.362)" fill="#e0e0e0" stroke="#302d2c" stroke-width="0.33"/>
      <path id="패스_7767" data-name="패스 7767" d="M28.357,25.7a4.075,4.075,0,0,0-.554-.119,3.5,3.5,0,0,0-1.043.054c-.506.08-1.236-.153-1.348-.044-.046.152-.356,4.671-.336,4.832.056.123.591.028.591.028l1.268-.138a5.161,5.161,0,0,1,.853.035,2.121,2.121,0,0,1,.554.358l.016-5.006Z" transform="translate(-16.551 -15.362)" fill="#fff" stroke="#302d2c" stroke-width="0.165"/>
      <path id="패스_7768" data-name="패스 7768" d="M28.366,25.7a3.265,3.265,0,0,1,.568-.135,3.528,3.528,0,0,1,1.04.06c.5.084,1.2-.144,1.313-.034.042.153.32,4.685.3,4.847-.063.123-.65.029-.65.029l-1.206-.1a4.876,4.876,0,0,0-.862.011,1.9,1.9,0,0,0-.522.333l.016-5.006Z" transform="translate(-16.56 -15.362)" fill="#fff" stroke="#302d2c" stroke-width="0.165"/>
      <path id="패스_7769" data-name="패스 7769" d="M22.229,35.125l-.469.587s-.772-.471-1.594-.89c-1.13-.579-.6-1.162-.4-1.191.6-.084.938.638,1.191.855s1.075.957,1.442.5c.283-.352-1.26-1.224-1.963-1.826s-1.566-1.418-1.225-1.693c.522-.42,1.71,1.056,1.71,1.056l-.587.537" transform="translate(-16.535 -15.378)" fill="#aa8000"/>
      <path id="패스_7770" data-name="패스 7770" d="M19.558,33.757a11.99,11.99,0,0,0-1.826,1.526,1.358,1.358,0,0,0,.4,1.675c.754.5,2.281,1.223,2.782,1.593s1.258,1.006,2.013,1.624A12.918,12.918,0,0,0,25.644,42.1a13.639,13.639,0,0,0,2.831.537V39.355a4.881,4.881,0,0,1-1.81-.268,24.2,24.2,0,0,1-3.116-2.279,15.143,15.143,0,0,0-1.894-1.173c-.42-.244-1.057-.573-1.442-.79s-.687-.417-.738-.67a.553.553,0,0,1,.083-.418Z" transform="translate(-16.531 -15.384)" fill="#ffea65"/>
      <path id="패스_7771" data-name="패스 7771" d="M34.7,35.125l.471.587s.77-.471,1.592-.89c1.129-.579.6-1.162.4-1.191-.6-.084-.939.638-1.192.855s-1.074.957-1.44.5c-.286-.352,1.257-1.224,1.961-1.826s1.566-1.418,1.225-1.693C37.193,31.051,36,32.527,36,32.527l.585.537" transform="translate(-16.577 -15.378)" fill="#aa8000"/>
      <path id="패스_7772" data-name="패스 7772" d="M37.346,33.757a11.894,11.894,0,0,1,1.826,1.526,1.357,1.357,0,0,1-.4,1.675c-.753.5-2.278,1.223-2.78,1.593s-1.257,1.006-2.012,1.624A12.953,12.953,0,0,1,31.259,42.1a13.485,13.485,0,0,1-2.831.522V39.344a4.764,4.764,0,0,0,1.809-.257,23.864,23.864,0,0,0,3.116-2.279,15.439,15.439,0,0,1,1.895-1.173c.422-.244,1.056-.573,1.441-.79s.689-.417.74-.67a.551.551,0,0,0-.084-.418Z" transform="translate(-16.561 -15.384)" fill="#ffea65"/>
      <path id="패스_7773" data-name="패스 7773" d="M23.195,37.652a.654.654,0,0,0-.051-.164c-.01-.024,0-.037.023-.032a.16.16,0,0,1,.08.039.544.544,0,0,1,.067.071c.017.023.041.058.073.1l.025.033a.107.107,0,0,1,.021.078c0,.01-.019.026-.041.047a.239.239,0,0,0-.026.022l-.027.029-.453.556a.625.625,0,0,1-.21.181.156.156,0,0,1-.136.019c-.021-.012-.023-.035-.007-.072a.79.79,0,0,1,.108-.16l.531-.652a.125.125,0,0,0,.024-.1h0m-.5-.18a.05.05,0,0,0,.023,0,.1.1,0,0,1,.035.008.293.293,0,0,1,.065.056c.056.06.082.1.078.116s-.024.021-.064.027l-.028,0a1.425,1.425,0,0,1-.174.054c-.058.012-.116.025-.175.036a.261.261,0,0,0,.024.056.254.254,0,0,0,.029.045.3.3,0,0,1,.047.091.259.259,0,0,1,0,.136.146.146,0,0,1-.041.077.079.079,0,0,1-.06.026.075.075,0,0,1-.053-.028.136.136,0,0,1-.022-.088l0-.149V37.85c0-.031,0-.055,0-.067a1.7,1.7,0,0,1-.4,0,1.934,1.934,0,0,1-.328-.076c-.043-.017-.062-.033-.057-.043s.034-.017.079-.009a1.847,1.847,0,0,0,.48-.006,1.648,1.648,0,0,0,.457-.119l-.113-.084c-.039-.024-.074-.047-.106-.065l-.035-.019a.107.107,0,0,1-.027-.008.126.126,0,0,1-.055-.033.44.44,0,0,1-.046-.114c-.011-.05-.011-.078,0-.093s.025-.006.041.017a1.8,1.8,0,0,0,.154.137c.052.041.13.1.23.174l.016.011a.167.167,0,0,0,.035.018h0m-.744.7a.533.533,0,0,0-.065-.1c-.016-.024-.012-.038.02-.041a.128.128,0,0,1,.086.032c.025.02.052.044.084.074a.6.6,0,0,1,.084.082.1.1,0,0,1,.033.067c0,.012-.016.028-.039.051l-.037.043-.084.1a.143.143,0,0,0-.039.071.076.076,0,0,0,.037.057l.208.17a.15.15,0,0,0,.057.034l.045.011a.228.228,0,0,1,.073.019.482.482,0,0,1,.111.082.138.138,0,0,1,.043.074.072.072,0,0,1-.016.06.065.065,0,0,1-.054.024.1.1,0,0,1-.073-.022l-.524-.428a.21.21,0,0,1-.088-.132.159.159,0,0,1,.04-.131l.094-.115a.079.079,0,0,0,0-.08Z" transform="translate(-16.542 -15.393)" fill="#1a1311"/>
      <path id="패스_7774" data-name="패스 7774" d="M24.675,38.964a.669.669,0,0,0-.034-.166c-.01-.027,0-.037.024-.033a.185.185,0,0,1,.077.046.508.508,0,0,1,.06.079c.014.023.035.06.065.109l.018.035a.1.1,0,0,1,.017.08.14.14,0,0,1-.045.043.145.145,0,0,0-.028.021.32.32,0,0,0-.029.026l-.719.742a1.391,1.391,0,0,1-.324.266c-.07.037-.123.045-.156.027s-.02-.039,0-.076a.95.95,0,0,1,.141-.17l.287-.3a4.611,4.611,0,0,1-.469-.2,3.513,3.513,0,0,1-.346-.193.117.117,0,0,1-.035-.121.216.216,0,0,1,.043-.119l.193-.2a.109.109,0,0,0,.03-.092.247.247,0,0,0-.031-.1c-.013-.022-.011-.039,0-.043s.041,0,.069.022a.761.761,0,0,1,.109.107.793.793,0,0,1,.1.133l.185.16.225-.232c-.029-.025-.062-.054-.1-.085s-.1-.076-.131-.1a.1.1,0,0,0-.037-.021.086.086,0,0,0-.026-.014.15.15,0,0,1-.056-.045.631.631,0,0,1-.046-.148.1.1,0,0,1,0-.074c.012-.015.026-.008.041.017.035.043.081.091.136.147s.144.129.251.221a.141.141,0,0,0,.027.014.055.055,0,0,0,.019,0,.09.09,0,0,1,.035.012.287.287,0,0,1,.064.066c.047.055.069.1.067.119s-.02.027-.053.037l-.033.014c-.055.031-.1.06-.146.087s-.08.048-.119.074a.083.083,0,0,1,.022.056.047.047,0,0,1-.018.037.065.065,0,0,1-.078,0l-.312-.267-.206.212c-.015.017.053.078.2.187a2.956,2.956,0,0,0,.468.286l.561-.578a.128.128,0,0,0,.031-.1Z" transform="translate(-16.546 -15.397)" fill="#1a1311"/>
      <path id="패스_7775" data-name="패스 7775" d="M25.59,40.375a.168.168,0,1,0-.162.294.162.162,0,0,0,.137.013.152.152,0,0,0,.094-.079.171.171,0,0,0,.017-.123.159.159,0,0,0-.086-.106Z" transform="translate(-16.552 -15.402)" fill="#1a1311"/>
      <path id="패스_7776" data-name="패스 7776" d="M27.113,40.583a.337.337,0,0,0-.073-.107c-.023-.018-.029-.035-.011-.044a.15.15,0,0,1,.09-.009.266.266,0,0,1,.1.048,1.008,1.008,0,0,1,.119.082l.007,0c.039.03.051.061.035.093a.9.9,0,0,1-.146.181l-.025.033a.754.754,0,0,0,.09.053c.02.009.044.02.075.031a.345.345,0,0,1,.1.056.25.25,0,0,1,.059.125c.015.061,0,.1-.043.121a.11.11,0,0,1-.125-.048l-.051-.065c-.044-.06-.078-.1-.1-.125-.031-.039-.056-.07-.076-.092a1.567,1.567,0,0,1-.266.191,1.209,1.209,0,0,1-.3.127c-.054.015-.087.017-.1,0s.01-.026.054-.051a1.565,1.565,0,0,0,.309-.237,1.4,1.4,0,0,0,.246-.288l.008-.01a.091.091,0,0,0,.014-.072h0m.671-.172a.722.722,0,0,0-.13-.109c-.023-.016-.023-.029,0-.041a.161.161,0,0,1,.089-.01.452.452,0,0,1,.1.026q.039.013.117.048l.037.014c.034.018.055.035.06.055s0,.031-.01.062l-.006.03a.265.265,0,0,0-.008.041l-.082.712a.69.69,0,0,1-.08.268.162.162,0,0,1-.106.089c-.022,0-.039-.019-.044-.058a.641.641,0,0,1,0-.192l.1-.834a.129.129,0,0,0-.036-.1h0m-.775,1.106a.464.464,0,0,0-.108-.049c-.03-.014-.032-.027,0-.047a.124.124,0,0,1,.088-.021l.109.017a1.129,1.129,0,0,1,.115.026c.036.009.056.021.065.039a.149.149,0,0,1-.007.064l-.007.055-.015.131a.165.165,0,0,0,0,.082.076.076,0,0,0,.063.028l.266.032a.187.187,0,0,0,.068,0,.215.215,0,0,0,.043-.017.286.286,0,0,1,.07-.02.466.466,0,0,1,.138.009.129.129,0,0,1,.076.039.075.075,0,0,1,.018.058.067.067,0,0,1-.032.052.1.1,0,0,1-.072.019l-.672-.08a.213.213,0,0,1-.146-.062.151.151,0,0,1-.035-.134l.015-.145a.077.077,0,0,0-.039-.072Z" transform="translate(-16.555 -15.402)" fill="#1a1311"/>
      <path id="패스_7777" data-name="패스 7777" d="M28.912,40.544a.357.357,0,0,0-.1-.082c-.022-.014-.026-.027-.013-.041a.132.132,0,0,1,.086-.027.388.388,0,0,1,.114.021.782.782,0,0,1,.142.054c.041.02.059.047.055.075a.611.611,0,0,1-.077.162l-.019.039a.222.222,0,0,0,.087.041.25.25,0,0,0,.067.006.26.26,0,0,1,.082.013.378.378,0,0,1,.114.078.122.122,0,0,1,.037.082.078.078,0,0,1-.025.061.076.076,0,0,1-.067.025.162.162,0,0,1-.091-.035,1.749,1.749,0,0,0-.148-.107,1.328,1.328,0,0,0-.124-.082,1.2,1.2,0,0,1-.249.239,1.3,1.3,0,0,1-.27.152c-.049.018-.077.022-.084.01s.007-.029.05-.055a1.572,1.572,0,0,0,.248-.247,1.174,1.174,0,0,0,.185-.3l.006-.008a.087.087,0,0,0-.006-.072h0m.66-.2a.637.637,0,0,0-.149-.084c-.026-.01-.027-.025,0-.041a.158.158,0,0,1,.085-.025.394.394,0,0,1,.1.008c.027,0,.068.011.125.023l.038.01a.113.113,0,0,1,.071.041.135.135,0,0,1,0,.062c0,.017,0,.026,0,.033s0,.028,0,.041l.021.333a.67.67,0,0,1-.026.284.158.158,0,0,1-.088.1c-.022,0-.041-.015-.055-.052a.807.807,0,0,1-.03-.187l-.032-.458a.13.13,0,0,0-.053-.091h0m.074.88.015-.01a.117.117,0,0,1,.033-.021.387.387,0,0,1,.095,0c.062,0,.1.013.1.028s0,.028,0,.057l-.014.041-.032.181a.088.088,0,0,1,.057.014.032.032,0,0,1,.019.029.031.031,0,0,1-.019.03.063.063,0,0,1-.044.015l-.517.053.007.131c0,.027.01.043.026.051a.132.132,0,0,0,.081.013l.232-.017a.324.324,0,0,0,.072-.02.225.225,0,0,0,.04-.023.228.228,0,0,1,.055-.026.552.552,0,0,1,.141-.015.125.125,0,0,1,.084.023.065.065,0,0,1,.028.054.066.066,0,0,1-.02.054.088.088,0,0,1-.064.03l-.707.048a.167.167,0,0,1-.125-.03.125.125,0,0,1-.048-.1l-.007-.114a.092.092,0,0,0-.04-.063.17.17,0,0,0-.081-.035c-.017-.006-.029-.016-.029-.025s.012-.024.036-.034a.5.5,0,0,1,.125-.013.915.915,0,0,1,.179.019l.36-.037-.014-.188c-.067,0-.134.01-.205.019s-.128.014-.194.026a.2.2,0,0,0-.045.011c-.006,0-.021.006-.034.012a.132.132,0,0,1-.062.012.4.4,0,0,1-.113-.045c-.034-.016-.057-.037-.061-.059s0-.029.021-.029a1.272,1.272,0,0,0,.193.007c.1-.007.245-.017.416-.038l.036,0a.248.248,0,0,0,.025-.008Z" transform="translate(-16.561 -15.402)" fill="#1a1311"/>
      <path id="패스_7778" data-name="패스 7778" d="M31.176,40.429a.153.153,0,0,0-.078.11.165.165,0,0,0,.03.121.15.15,0,0,0,.095.073.152.152,0,0,0,.135-.022.163.163,0,0,0,.078-.112.169.169,0,0,0-.023-.12.177.177,0,0,0-.1-.076.164.164,0,0,0-.135.026Z" transform="translate(-16.568 -15.402)" fill="#1a1311"/>
      <path id="패스_7779" data-name="패스 7779" d="M32.571,38.7a.768.768,0,0,0-.208.029c-.025,0-.034,0-.026-.033a.1.1,0,0,1,.041-.061.712.712,0,0,1,.122-.076,1.656,1.656,0,0,1,.16-.079.08.08,0,0,1,.078,0,.228.228,0,0,1,.045.057.259.259,0,0,0,.017.025c0,.01.013.016.018.027l.4.473a.233.233,0,0,0,.038-.043.1.1,0,0,0,.012-.032.214.214,0,0,1,.021-.05.371.371,0,0,1,.092-.082.108.108,0,0,1,.079-.028.081.081,0,0,1,.062.029.118.118,0,0,1,.021.062.079.079,0,0,1-.029.062l-.215.179.227.273a.879.879,0,0,1,.186.3.183.183,0,0,1,0,.163c-.011.018-.037.016-.07-.006a.719.719,0,0,1-.128-.125l-.844-1.008a.132.132,0,0,0-.1-.05h0m-.237.617a.5.5,0,0,0-.129-.006c-.025,0-.037-.007-.033-.028a.128.128,0,0,1,.051-.07.319.319,0,0,1,.107-.051,1.21,1.21,0,0,1,.146-.041.122.122,0,0,1,.057,0,.057.057,0,0,1,.034.037.424.424,0,0,1,.024.09c0,.026.013.08.025.16l.014.086a.524.524,0,0,0,.129-.017.559.559,0,0,0,.095-.026.389.389,0,0,1,.119-.022.237.237,0,0,1,.132.057.142.142,0,0,1,.052.062.058.058,0,0,1,0,.057.086.086,0,0,1-.058.033.268.268,0,0,1-.107-.006l-.055-.009c-.079-.01-.136-.018-.173-.025-.067-.007-.111-.011-.13-.011a1.783,1.783,0,0,1-.058.322,1.445,1.445,0,0,1-.117.3q-.043.064-.066.06c-.011-.007-.011-.032,0-.079a1.1,1.1,0,0,0,.044-.407,1.538,1.538,0,0,0-.055-.4V39.37a.088.088,0,0,0-.046-.056Z" transform="translate(-16.571 -15.397)" fill="#1a1311"/>
      <path id="패스_7780" data-name="패스 7780" d="M34,37.441a.614.614,0,0,0-.171.031c-.032.008-.04,0-.032-.031a.153.153,0,0,1,.048-.065.586.586,0,0,1,.106-.072c.049-.027.1-.058.154-.084a.094.094,0,0,1,.078,0,.23.23,0,0,1,.043.057c.008.012.012.021.019.025a.146.146,0,0,0,.019.026l.3.358a.137.137,0,0,0,.038-.047.138.138,0,0,0,.012-.033.286.286,0,0,1,.022-.043.377.377,0,0,1,.077-.065.107.107,0,0,1,.073-.027.092.092,0,0,1,.057.029.09.09,0,0,1,.025.055.067.067,0,0,1-.025.053l-.207.177a.436.436,0,0,1,.1.192.142.142,0,0,1-.017.137c-.013.021-.041.019-.075-.009a.717.717,0,0,1-.117-.121l-.053-.063a2.952,2.952,0,0,1-.208.36,2.827,2.827,0,0,1-.241.331c-.022.029-.063.037-.121.027a.216.216,0,0,1-.111-.051l-.1-.125a.115.115,0,0,0-.086-.045.23.23,0,0,0-.1.02c-.026.012-.04.008-.041-.01a.1.1,0,0,1,.026-.064,1.309,1.309,0,0,1,.114-.1,1,1,0,0,1,.143-.083l.187-.173-.136-.157c-.03.03-.064.06-.1.093s-.069.077-.1.114a.221.221,0,0,0-.024.032.138.138,0,0,0-.017.024.133.133,0,0,1-.049.051.555.555,0,0,1-.154.033.1.1,0,0,1-.073-.013c-.011-.009,0-.024.023-.038a1.527,1.527,0,0,0,.158-.121c.062-.052.142-.125.24-.221,0-.01.012-.016.012-.024a.03.03,0,0,0,0-.02.248.248,0,0,1,.017-.032.3.3,0,0,1,.071-.057c.062-.039.1-.06.128-.055.009,0,.018.016.022.049l.008.031.013.049c.015.039.023.067.029.082a.685.685,0,0,0,.024.067.1.1,0,0,1,.058-.016.054.054,0,0,1,.034.023.041.041,0,0,1,.01.038.07.07,0,0,1-.022.039l-.308.288.126.149c.012.015.077-.041.2-.171a3.071,3.071,0,0,0,.3-.387l-.327-.385a.1.1,0,0,0-.1-.034h0m.573.739a.026.026,0,0,1,.023.016l.014.017a.393.393,0,0,1,.279-.048.29.29,0,0,1,.19.128.3.3,0,0,1,.047.222.423.423,0,0,1-.154.243.4.4,0,0,1-.259.111.287.287,0,0,1-.209-.078.276.276,0,0,1-.1-.192.335.335,0,0,1,.069-.241c.019-.031.033-.053.03-.068s-.011-.026-.03-.032-.025-.017-.014-.034a.079.079,0,0,1,.051-.032l0-.007a.2.2,0,0,1,.058,0h0m.009.323a.143.143,0,0,0,.036.114.147.147,0,0,0,.106.056.2.2,0,0,0,.144-.051.178.178,0,0,0,.064-.125.148.148,0,0,0-.038-.113.139.139,0,0,0-.1-.054.189.189,0,0,0-.135.044.2.2,0,0,0-.074.129Z" transform="translate(-16.574 -15.394)" fill="#1a1311"/>
    </g>
  </g>
</svg>
