<?xml version="1.0" standalone="no"?>
<!DOCTYPE svg PUBLIC "-//W3C//DTD SVG 20010904//EN"
 "http://www.w3.org/TR/2001/REC-SVG-20010904/DTD/svg10.dtd">
<svg version="1.0" xmlns="http://www.w3.org/2000/svg"
 width="672.000000pt" height="672.000000pt" viewBox="0 0 672.000000 672.000000"
 preserveAspectRatio="xMidYMid meet">
<metadata>
Created by potrace 1.14, written by Peter Selinger 2001-2017
</metadata>
<g transform="translate(0.000000,672.000000) scale(0.100000,-0.100000)"
fill="#000000" stroke="none">
<path d="M3240 6693 c-163 -54 -497 -140 -655 -169 -16 -3 -49 -9 -73 -15 -23
-5 -59 -12 -78 -15 -20 -3 -45 -8 -55 -10 -11 -2 -27 -6 -37 -8 -11 -2 -43 -7
-73 -11 -30 -4 -56 -8 -59 -10 -3 -1 -30 -6 -61 -9 -31 -4 -65 -8 -75 -10 -11
-2 -50 -7 -89 -10 -38 -4 -81 -9 -95 -11 -14 -2 -54 -7 -90 -10 -36 -3 -81 -7
-100 -10 -19 -2 -75 -6 -125 -10 -49 -3 -115 -8 -145 -10 -30 -2 -104 -7 -165
-10 -60 -4 -132 -8 -160 -10 -27 -2 -75 -4 -106 -4 l-57 -1 -1 -157 c0 -87 -4
-369 -7 -628 -12 -854 -8 -1280 12 -1460 2 -22 6 -67 9 -100 13 -157 37 -324
61 -425 3 -14 8 -36 11 -50 5 -32 48 -174 65 -220 20 -54 80 -160 89 -160 21
0 6 -27 -23 -45 -74 -42 -258 -169 -258 -176 0 -5 -4 -9 -10 -9 -10 0 -25 -11
-98 -75 -121 -106 -199 -205 -231 -291 -35 -91 -27 -269 16 -374 4 -8 7 -17 7
-20 1 -3 10 -18 20 -35 44 -70 44 -64 12 -129 -26 -54 -30 -71 -30 -156 0
-115 6 -146 46 -213 42 -73 80 -111 183 -180 50 -33 92 -63 95 -66 3 -3 16
-12 30 -20 14 -8 60 -36 103 -63 43 -26 83 -48 88 -48 5 0 9 -4 9 -8 0 -5 12
-14 27 -21 43 -19 223 -142 223 -152 0 -5 6 -9 13 -9 7 0 30 -16 51 -35 21
-19 40 -35 42 -35 2 0 17 -11 32 -24 15 -14 38 -34 52 -46 14 -12 45 -40 70
-63 227 -211 298 -275 385 -346 118 -96 107 -87 170 -131 28 -19 52 -37 55
-40 17 -17 313 -181 323 -179 2 0 69 -26 102 -41 46 -20 236 -73 300 -84 17
-3 62 -11 100 -17 78 -14 420 -18 505 -6 232 32 414 85 606 177 70 33 237 128
244 139 3 4 12 10 20 13 33 12 267 198 365 289 17 15 46 42 65 60 19 17 82 75
140 129 58 54 125 114 150 135 25 20 54 44 65 53 55 46 195 147 239 174 28 16
71 42 96 58 25 16 63 38 85 50 98 54 330 218 367 259 68 78 95 143 104 252 6
72 -13 166 -46 223 -17 31 -17 35 -2 57 9 13 21 27 26 31 6 4 7 8 2 8 -4 0 -1
11 8 25 9 13 16 31 16 40 0 8 4 15 8 15 5 0 9 6 10 13 0 6 4 23 8 37 4 14 9
80 10 147 2 120 2 123 -32 189 -31 62 -105 158 -164 212 -101 94 -373 292
-400 292 -5 0 -10 5 -10 10 0 6 -7 10 -15 10 -8 0 -15 5 -15 11 0 5 -5 7 -12
3 -13 -8 -5 7 28 51 53 71 127 277 150 420 3 17 9 54 15 83 6 29 12 67 15 85
2 17 6 52 9 77 3 25 8 61 11 80 2 19 7 71 10 115 2 44 7 91 9 104 9 49 18 362
18 566 -1 206 -12 1260 -13 1260 -1 0 -2 82 -2 182 -1 101 -4 187 -7 192 -4 5
-67 12 -141 15 -262 11 -338 15 -552 32 -40 3 -100 7 -133 9 -33 2 -76 6 -95
9 -19 3 -66 8 -105 11 -38 3 -81 8 -95 10 -14 2 -45 7 -70 9 -46 5 -106 14
-150 22 -14 2 -41 7 -60 9 -19 3 -46 8 -60 12 -14 3 -35 7 -48 9 -32 4 -122
22 -227 45 -49 10 -99 21 -110 23 -11 2 -58 14 -105 26 -47 12 -94 24 -105 26
-11 2 -96 27 -190 54 -93 28 -179 52 -190 54 -11 2 -54 -7 -95 -21z"/>
</g>
</svg>
